<svg xmlns="http://www.w3.org/2000/svg" viewBox="0 0 10.6409 9.7314"><defs><style>.cls-1{fill:#fdeb01;}</style></defs><title>Asset 14pdt</title><g id="Layer_2" data-name="Layer 2"><g id="Layer_1-2" data-name="Layer 1"><path class="cls-1" d="M10.4643,8.4982H9.6009V3.8049l.0077.0032h.222V6.426a.1876.1876,0,0,0,.1871.1871H10.24a.1876.1876,0,0,0,.1871-.1871V2.9484a.1876.1876,0,0,0-.1871-.187h-.2227c-.007,0-.0112.0068-.018.0075s-.011-.0075-.018-.0075H9.6086l-.0077.0032V.76a.7621.7621,0,0,0-.76-.76H4.18a.7621.7621,0,0,0-.76.76V8.4982H2.5568a.177.177,0,0,0-.1765.1765v.88a.1771.1771,0,0,0,.1765.1766h7.9075a.1771.1771,0,0,0,.1766-.1766v-.88A.177.177,0,0,0,10.4643,8.4982ZM8.8592,4.6a.4227.4227,0,0,1-.4214.4215H4.5834A.4227.4227,0,0,1,4.162,4.6V1.3723A.4227.4227,0,0,1,4.5834.9509H8.4378a.4227.4227,0,0,1,.4214.4214Z"/><path class="cls-1" d="M.286,6.2534.7166,5.932l.3506.47-.4306.3214a.1791.1791,0,0,0,.2143.287l.4306-.3214.3993.5349,1.096-.8181-.0013-.0018a1.2566,1.2566,0,0,0,.2463-1.609l.5028-.3753a.1791.1791,0,1,0-.2143-.287l-.5028.3753a1.2566,1.2566,0,0,0-1.6126-.2214l-.0013-.0018-1.096.8181.4048.5423-.4306.3214a.1791.1791,0,1,0,.2143.287ZM1.5576,4.5741A.9223.9223,0,0,1,2.3956,6.19l-.4263.3182Z"/></g></g></svg>