<svg xmlns="http://www.w3.org/2000/svg" viewBox="0 0 14.75 14.75"><defs><style>.cls-1{fill:#33b07b;stroke:#fff;stroke-miterlimit:10;stroke-width:0.75px;}.cls-2{fill:#fff;}</style></defs><title>Asset 2pdt</title><g id="Layer_2" data-name="Layer 2"><g id="Layer_1-2" data-name="Layer 1"><circle class="cls-1" cx="7.375" cy="7.375" r="7"/><path class="cls-2" d="M11.5679,4.8063l-1.1514.9275L9.4047,4.4777,10.5561,3.55a.4928.4928,0,0,0-.6183-.7676L8.7864,3.71,7.634,2.28,4.7032,4.64l.0039.0048a3.4579,3.4579,0,0,0-.5141,4.45L2.8483,10.1781a.4928.4928,0,0,0,.6183.7676L4.8112,9.8625a3.4579,3.4579,0,0,0,4.4571.4452l.0039.0048,2.9309-2.3609-1.1683-1.45,1.1514-.9275a.4928.4928,0,0,0-.6183-.7676ZM8.2417,9.5533A2.5379,2.5379,0,0,1,5.773,5.1949l1.14-.9182Z"/></g></g></svg>