<svg viewBox="0 0 14.75 14.75" xmlns="http://www.w3.org/2000/svg"><circle cx="7.375" cy="7.375" fill="#00a2da" r="7" stroke="#fff" stroke-miterlimit="10" stroke-width=".75"/><path d="m11.0775 10.5476h-.8086v-4.3951l.0073.003h.2079v2.4515a.1757.1757 0 0 0 .1752.1752h.2085a.1757.1757 0 0 0 .1752-.1752v-3.257a.1757.1757 0 0 0 -.1752-.1752h-.2085c-.0066 0-.0105.0063-.0169.007s-.01-.007-.0168-.007h-.3494l-.0073.003v-1.8769a.7137.7137 0 0 0 -.7116-.7116h-4.3646a.7137.7137 0 0 0 -.7116.7116v7.2467h-.8087a.1658.1658 0 0 0 -.1653.1653v.8242a.1658.1658 0 0 0 .1653.1653h7.4051a.1658.1658 0 0 0 .1653-.1653v-.8242a.1658.1658 0 0 0 -.1653-.1653zm-1.5031-3.65a.3959.3959 0 0 1 -.3946.3947h-3.6098a.3959.3959 0 0 1 -.3947-.3947v-3.0232a.3958.3958 0 0 1 .3947-.3944h3.61a.3958.3958 0 0 1 .3946.3946z" fill="#fff"/></svg>