<svg xmlns="http://www.w3.org/2000/svg" viewBox="0 0 25 25"><defs><style>.cls-1{fill:#fdeb01;}.cls-2{fill:#3ab986;stroke:#fff;stroke-miterlimit:10;stroke-width:0.75px;}.cls-3{fill:#fff;}</style></defs><title>Asset 11pdt</title><g id="Layer_2" data-name="Layer 2"><g id="Layer_1-2" data-name="Layer 1"><circle class="cls-1" cx="12.5" cy="12.5" r="12.5"/><circle class="cls-2" cx="12.5" cy="12.5" r="10"/><path class="cls-3" d="M18.49,8.83l-1.6449,1.325L15.4,8.361l1.6449-1.325a.7041.7041,0,0,0-.8833-1.0966l-1.6449,1.325L12.87,5.2208,8.6831,8.5935,8.6886,8.6a4.94,4.94,0,0,0-.7345,6.3567L6.0332,16.5044a.7041.7041,0,1,0,.8833,1.0966l1.9209-1.5473a4.94,4.94,0,0,0,6.3673.636l.0055.0069,4.1869-3.3727L17.7283,11.252l1.6449-1.325A.7041.7041,0,1,0,18.49,8.83Zm-4.7518,6.7815a3.6256,3.6256,0,0,1-3.5267-6.2264L11.84,8.0738Z"/></g></g></svg>