<svg xmlns="http://www.w3.org/2000/svg" viewBox="0 0 25 25"><defs><style>.cls-1{fill:#fdeb01;}.cls-2{fill:#00abdf;stroke:#fff;stroke-miterlimit:10;stroke-width:0.75px;}.cls-3{fill:#fff;}</style></defs><title>Asset 10pdt</title><g id="Layer_2" data-name="Layer 2"><g id="Layer_1-2" data-name="Layer 1"><circle class="cls-1" cx="12.5" cy="12.5" r="12.5"/><circle class="cls-2" cx="12.5" cy="12.5" r="9.9999"/><path class="cls-3" d="M17.7893,17.0322H16.6341V10.7535l.01.0043h.297V14.26a.251.251,0,0,0,.25.25H17.49a.251.251,0,0,0,.25-.25V9.6077a.251.251,0,0,0-.25-.25h-.2979c-.0094,0-.015.009-.0241.01-.0092-.0008-.0147-.01-.024-.01h-.4992l-.01.0043V6.68a1.02,1.02,0,0,0-1.0166-1.0165H9.3824A1.02,1.02,0,0,0,8.3659,6.68V17.0322H7.2107a.2368.2368,0,0,0-.2361.2361v1.1774a.2369.2369,0,0,0,.2361.2362H17.7893a.2369.2369,0,0,0,.2362-.2362V17.2683A.2368.2368,0,0,0,17.7893,17.0322ZM15.642,11.8175a.5655.5655,0,0,1-.5638.5638H9.9219a.5655.5655,0,0,1-.5638-.5638V7.4991a.5654.5654,0,0,1,.5638-.5638h5.1564a.5654.5654,0,0,1,.5638.5638Z"/></g></g></svg>