<svg xmlns="http://www.w3.org/2000/svg" viewBox="0 0 10.75 10.75"><defs><style>.cls-1{fill:#005580;stroke:#fff;stroke-miterlimit:10;stroke-width:0.75px;}.cls-2{fill:#fff;}</style></defs><title>Asset 8pdt</title><g id="Layer_2" data-name="Layer 2"><g id="Layer_1-2" data-name="Layer 1"><rect class="cls-1" x="0.375" y="0.375" width="10" height="10" rx="1.3323" ry="1.3323"/><path class="cls-2" d="M4.2109,6.6455V9.3047H2.3779v-7.66H5.3545a5.7026,5.7026,0,0,1,1.5479.1846,3.1885,3.1885,0,0,1,1.0732.51,2.03,2.03,0,0,1,.6279.7764,2.3947,2.3947,0,0,1,.2021.9863,2.4646,2.4646,0,0,1-.2129,1.0322,2.1187,2.1187,0,0,1-.6416.8018A3.1483,3.1483,0,0,1,6.874,6.458a5.4925,5.4925,0,0,1-1.52.1875Zm0-1.1768H5.3545a1.7458,1.7458,0,0,0,1.2266-.3662,1.3049,1.3049,0,0,0,.3906-1.001,1.1934,1.1934,0,0,0-.3975-.9434,1.8115,1.8115,0,0,0-1.22-.3486H4.2109Z"/></g></g></svg>