<svg xmlns="http://www.w3.org/2000/svg" viewBox="0 0 10.75 10.75"><defs><style>.cls-1{fill:#f8971d;stroke:#fff;stroke-miterlimit:10;stroke-width:0.75px;}.cls-2{fill:#fff;}</style></defs><title>Asset 9pdt</title><g id="Layer_2" data-name="Layer 2"><g id="Layer_1-2" data-name="Layer 1"><rect class="cls-1" x="0.375" y="0.375" width="10" height="10" rx="1.3323" ry="1.3323"/><g id="_4WEr0x.tif" data-name="4WEr0x.tif"><path class="cls-2" d="M9.1416,4.6217a.0975.0975,0,0,0-.111-.0908c-.1494-.0006-.2988-.0011-.4481,0-.0319,0-.0447-.0078-.0538-.041A3.1237,3.1237,0,0,0,8.2312,3.77a.0472.0472,0,0,1,.0112-.07c.1044-.1018.2071-.2053.31-.3089A.1.1,0,0,0,8.567,3.236,4.0494,4.0494,0,0,0,7.5181,2.1854c-.0693-.0478-.1035-.0439-.1633.0156-.1033.1029-.2068.2056-.3089.31a.0419.0419,0,0,1-.0619.01,3.1139,3.1139,0,0,0-.7257-.3c-.0335-.0092-.0405-.0227-.04-.0542.0015-.1494.0012-.2988,0-.4481a.0962.0962,0,0,0-.0909-.11c-.0891-.0159-.1789-.0281-.2679-.0443a1.83,1.83,0,0,1-.2285-.03H5.0976c-.01.0191-.0283.01-.0427.0119a4.0228,4.0228,0,0,0-.4269.0617c-.0721.0153-.0963.0438-.0965.1168,0,.1476-.001.2952.0005.4428,0,.0313-.0065.0451-.04.0543a3.1139,3.1139,0,0,0-.7257.3.0419.0419,0,0,1-.062-.01c-.1021-.1042-.2055-.2069-.3089-.31-.06-.06-.0945-.0633-.1632-.0159A4.0624,4.0624,0,0,0,2.186,3.2312c-.0477.0691-.0438.1038.0155.1633.1029.1033.2057.2067.31.3089.02.02.027.0331.0106.0616a3.1146,3.1146,0,0,0-.3.7252c-.0091.0329-.0216.0415-.0537.0411-.1494-.0016-.2988-.0012-.4481,0a.0972.0972,0,0,0-.1112.09A3.7747,3.7747,0,0,0,1.6073,6.12c.0151.0751.0437.098.1208.0982.1458,0,.2917.0012.4375-.0007.0349,0,.0474.01.0568.0442a3.1341,3.1341,0,0,0,.2954.7159.0473.0473,0,0,1-.0085.07c-.1059.1028-.21.2077-.3136.3126a.0988.0988,0,0,0-.0138.1508A4.0433,4.0433,0,0,0,3.2348,8.565c.0668.0459.1011.0418.159-.0158.1046-.1041.2094-.2081.3127-.3135a.0394.0394,0,0,1,.0577-.0086,3.1392,3.1392,0,0,0,.7307.3019c.0318.0087.0372.0224.037.0511q-.0018.2267,0,.4535a.0962.0962,0,0,0,.0887.1072,3.7753,3.7753,0,0,0,1.4985.0016c.0764-.0153.1-.0432.1-.1193,0-.1458.001-.2917-.0006-.4375,0-.0329.006-.0483.0421-.0581a3.1151,3.1151,0,0,0,.721-.2977.0449.0449,0,0,1,.0662.01c.1019.1043.2054.207.3089.31.058.0577.0928.0614.1589.016a4.0453,4.0453,0,0,0,1.05-1.0494.1016.1016,0,0,0-.0143-.1592c-.1041-.1046-.2079-.21-.3136-.3126A.0416.0416,0,0,1,8.23,6.982a3.0716,3.0716,0,0,0,.2961-.7155c.01-.0382.0249-.05.0642-.0494.1476.0024.2952.0015.4428.0007a.0961.0961,0,0,0,.1086-.0871A3.79,3.79,0,0,0,9.1416,4.6217ZM8.9128,4.72c-.1518.0035-.3037.0017-.4555.0019h0C8.6091,4.7215,8.761,4.7234,8.9128,4.72Zm-1.7579.6516a1.78,1.78,0,1,1-1.7787-1.777A1.7837,1.7837,0,0,1,7.1548,5.3715Zm-2.4361-3.07c.001-.1546.004-.3092.0018-.4637.0023.1545-.0008.3091-.0018.4637a.1005.1005,0,0,1-.0387.0558A.1.1,0,0,0,4.7187,2.3011ZM1.7735,4.7765a.0509.0509,0,0,1,.0144-.0458.0508.0508,0,0,0-.0144.0458c-.0149.083-.0271.1663-.0354.25C1.7464,4.9428,1.7587,4.8595,1.7735,4.7765ZM6.0314,8.4478c-.001.1546-.004.3092-.0018.4637-.0023-.1545.0007-.3091.0018-.4637A.1.1,0,0,1,6.07,8.392.1.1,0,0,0,6.0314,8.4478Z"/></g></g></g></svg>